<svg width="32" height="32" viewBox="0 0 32 32" fill="none" xmlns="http://www.w3.org/2000/svg">
<g clip-path="url(#clip0_3_56)">
<path d="M1.33331 5.33332V13.3333M1.33331 13.3333H9.33331M1.33331 13.3333L7.51998 7.51999C8.95298 6.08627 10.7258 5.03893 12.6731 4.47569C14.6203 3.91244 16.6785 3.85166 18.6556 4.299C20.6327 4.74634 22.4642 5.68723 23.9794 7.03388C25.4945 8.38053 26.6438 10.089 27.32 12M30.6666 26.6667V18.6667M30.6666 18.6667H22.6666M30.6666 18.6667L24.48 24.48C23.047 25.9137 21.2741 26.961 19.3269 27.5243C17.3797 28.0875 15.3215 28.1483 13.3444 27.701C11.3673 27.2536 9.53571 26.3127 8.0206 24.9661C6.50549 23.6195 5.3562 21.9109 4.67998 20" stroke="white" stroke-width="3" stroke-linecap="round" stroke-linejoin="round"/>
</g>
<defs>
<clipPath id="clip0_3_56">
<rect width="32" height="32" fill="white"/>
</clipPath>
</defs>
</svg>
